<?xml version="1.0" encoding="utf-8"?>
<!-- Generator: Adobe Illustrator 22.1.0, SVG Export Plug-In . SVG Version: 6.00 Build 0)  -->
<svg version="1.1" id="Layer_1" xmlns:sketch="http://www.bohemiancoding.com/sketch/ns"
	 xmlns="http://www.w3.org/2000/svg" xmlns:xlink="http://www.w3.org/1999/xlink" x="0px" y="0px" viewBox="1.924 86.354 37 36.896"
	 enable-background="new 1.924 86.354 37 36.896" xml:space="preserve">
<rect x="0" y="42" width="137.544" height="27"/>
<title>Slice 1</title>
<description>Created with Sketch (http://www.bohemiancoding.com/sketch)</description>
<g>
	<g id="Page-1" sketch:type="MSPage">
		<path id="Fill-17" sketch:type="MSShapeGroup" d="M9.924,3.313V1h2.314c0,0-0.32-0.714-0.314-1h-3v3
			C9.211,2.991,9.924,3.313,9.924,3.313z M35.924,3c-0.287-0.009-1.091,0.313-1.091,0.313V1H32.52c0,0,0.412-0.714,0.404-1h1.909
			h1.091V3z M9.924,23.687V26h2.314c0,0-0.32,0.713-0.314,1h-3v-3C9.211,24.008,9.924,23.687,9.924,23.687z M34.924,23.687V26
			h-2.313c0,0,0.321,0.713,0.313,1h3v-3C35.637,24.008,34.924,23.687,34.924,23.687z"/>
		<path id="Fill-1-copy-2" sketch:type="MSShapeGroup" d="M11.053,6.891c-0.146-0.145-0.194-4.552,0-4.746s4.617-0.194,4.762,0
			s0.146,4.6,0,4.746S11.198,7.036,11.053,6.891z M17.053,6.891c-0.146-0.145-0.194-4.552,0-4.746s4.617-0.194,4.762,0
			s0.146,4.6,0,4.746S17.198,7.036,17.053,6.891z M23.053,6.891c-0.146-0.145-0.194-4.552,0-4.746s4.617-0.194,4.762,0
			c0.146,0.194,0.146,4.6,0,4.746C27.669,7.036,23.198,7.036,23.053,6.891z M29.053,6.891c-0.146-0.145-0.194-4.552,0-4.746
			c0.194-0.194,4.617-0.194,4.762,0c0.146,0.194,0.146,4.6,0,4.746C33.669,7.036,29.198,7.036,29.053,6.891z M11.053,12.891
			c-0.146-0.145-0.194-4.552,0-4.746c0.194-0.194,4.617-0.194,4.762,0c0.146,0.194,0.146,4.6,0,4.746S11.198,13.036,11.053,12.891z
			 M17.053,12.891c-0.146-0.145-0.194-4.552,0-4.746c0.194-0.194,4.617-0.194,4.762,0c0.146,0.194,0.146,4.6,0,4.746
			S17.198,13.036,17.053,12.891z M23.053,12.891c-0.146-0.145-0.194-4.552,0-4.746c0.194-0.194,4.617-0.194,4.762,0
			c0.146,0.194,0.146,4.6,0,4.746C27.669,13.036,23.198,13.036,23.053,12.891z M29.053,12.891c-0.146-0.145-0.194-4.552,0-4.746
			c0.194-0.194,4.617-0.194,4.762,0c0.146,0.194,0.146,4.6,0,4.746C33.669,13.036,29.198,13.036,29.053,12.891z M11.053,18.891
			c-0.146-0.145-0.194-4.552,0-4.746c0.194-0.194,4.617-0.194,4.762,0c0.146,0.194,0.146,4.6,0,4.746
			C15.669,19.036,11.198,19.036,11.053,18.891z M17.053,18.891c-0.146-0.145-0.194-4.552,0-4.746c0.194-0.194,4.617-0.194,4.762,0
			c0.146,0.194,0.146,4.6,0,4.746C21.669,19.036,17.198,19.036,17.053,18.891z M23.053,18.891c-0.146-0.145-0.194-4.552,0-4.746
			c0.194-0.194,4.617-0.194,4.762,0c0.146,0.194,0.146,4.6,0,4.746C27.669,19.036,23.198,19.036,23.053,18.891z M29.053,18.891
			c-0.146-0.145-0.194-4.552,0-4.746c0.194-0.194,4.617-0.194,4.762,0c0.146,0.194,0.146,4.6,0,4.746
			C33.669,19.036,29.198,19.036,29.053,18.891z M11.053,24.891c-0.146-0.145-0.194-4.552,0-4.746c0.194-0.194,4.617-0.194,4.762,0
			c0.146,0.194,0.146,4.6,0,4.746C15.669,25.036,11.198,25.036,11.053,24.891z M17.053,24.891c-0.146-0.145-0.194-4.552,0-4.746
			c0.194-0.194,4.617-0.194,4.762,0c0.146,0.194,0.146,4.6,0,4.746C21.669,25.036,17.198,25.036,17.053,24.891z M23.053,24.891
			c-0.146-0.145-0.194-4.552,0-4.746c0.194-0.194,4.617-0.194,4.762,0c0.146,0.194,0.146,4.6,0,4.746
			C27.669,25.036,23.198,25.036,23.053,24.891z M29.053,24.891c-0.146-0.145-0.194-4.552,0-4.746c0.194-0.194,4.617-0.194,4.762,0
			c0.146,0.194,0.146,4.6,0,4.746C33.669,25.036,29.198,25.036,29.053,24.891z"/>
	</g>
	<g>
		<path d="M43.331,14.645c0.073,0.518,0.217,0.905,0.432,1.161c0.392,0.467,1.064,0.699,2.017,0.699c0.57,0,1.034-0.062,1.39-0.185
			c0.675-0.235,1.013-0.674,1.013-1.314c0-0.374-0.166-0.663-0.496-0.868c-0.331-0.2-0.855-0.377-1.573-0.531l-1.227-0.269
			c-1.206-0.266-2.034-0.556-2.485-0.869c-0.764-0.522-1.146-1.34-1.146-2.452c0-1.015,0.374-1.858,1.121-2.529
			s1.844-1.007,3.291-1.007c1.209,0,2.24,0.316,3.094,0.949c0.854,0.633,1.301,1.552,1.343,2.756h-2.275
			c-0.042-0.682-0.348-1.166-0.915-1.453c-0.378-0.189-0.848-0.285-1.41-0.285c-0.625,0-1.124,0.123-1.497,0.369
			s-0.56,0.589-0.56,1.03c0,0.405,0.184,0.707,0.552,0.907c0.236,0.133,0.737,0.29,1.505,0.469l1.988,0.469
			c0.872,0.205,1.525,0.479,1.96,0.823c0.676,0.533,1.014,1.304,1.014,2.313c0,1.035-0.4,1.896-1.201,2.579
			c-0.8,0.685-1.931,1.026-3.392,1.026c-1.491,0-2.665-0.337-3.52-1.011s-1.282-1.601-1.282-2.779H43.331z"/>
		<path d="M53.738,9.763v5.05c0,0.478,0.056,0.836,0.168,1.077c0.199,0.425,0.589,0.638,1.17,0.638c0.745,0,1.255-0.303,1.53-0.907
			c0.143-0.328,0.214-0.761,0.214-1.299V9.763h2.222v8.379h-2.129v-1.184c-0.021,0.025-0.072,0.103-0.153,0.23
			c-0.082,0.128-0.179,0.241-0.292,0.338c-0.342,0.308-0.673,0.518-0.992,0.631c-0.319,0.112-0.694,0.169-1.123,0.169
			c-1.237,0-2.07-0.446-2.499-1.338c-0.24-0.492-0.36-1.217-0.36-2.176v-5.05H53.738z"/>
		<path d="M67.825,10.663c0.683,0.723,1.024,1.784,1.024,3.183c0,1.476-0.334,2.601-1.002,3.375
			c-0.668,0.774-1.527,1.161-2.58,1.161c-0.671,0-1.228-0.167-1.671-0.5c-0.242-0.185-0.48-0.453-0.712-0.807v4.366h-2.168V9.763
			h2.099v1.238c0.237-0.364,0.49-0.651,0.758-0.861c0.49-0.374,1.073-0.561,1.749-0.561C66.307,9.579,67.141,9.94,67.825,10.663z
			 M66.143,12.239c-0.298-0.497-0.78-0.746-1.448-0.746c-0.803,0-1.354,0.376-1.654,1.13c-0.155,0.4-0.233,0.907-0.233,1.522
			c0,0.974,0.262,1.657,0.784,2.052c0.311,0.231,0.678,0.347,1.103,0.347c0.616,0,1.086-0.236,1.41-0.708
			c0.323-0.471,0.485-1.099,0.485-1.883C66.589,13.307,66.441,12.736,66.143,12.239z"/>
		<path d="M77.047,10.663c0.683,0.723,1.024,1.784,1.024,3.183c0,1.476-0.334,2.601-1.002,3.375
			c-0.668,0.774-1.527,1.161-2.58,1.161c-0.671,0-1.228-0.167-1.671-0.5c-0.242-0.185-0.48-0.453-0.712-0.807v4.366h-2.168V9.763
			h2.099v1.238c0.237-0.364,0.49-0.651,0.758-0.861c0.49-0.374,1.073-0.561,1.749-0.561C75.53,9.579,76.364,9.94,77.047,10.663z
			 M75.366,12.239c-0.298-0.497-0.78-0.746-1.448-0.746c-0.803,0-1.354,0.376-1.654,1.13c-0.155,0.4-0.233,0.907-0.233,1.522
			c0,0.974,0.262,1.657,0.784,2.052c0.311,0.231,0.678,0.347,1.103,0.347c0.616,0,1.086-0.236,1.41-0.708
			c0.323-0.471,0.485-1.099,0.485-1.883C75.812,13.307,75.664,12.736,75.366,12.239z"/>
		<path d="M81.461,18.143H79.27V6.812h2.191V18.143z"/>
		<path d="M83.535,19.749l0.277,0.016c0.215,0.01,0.42,0.003,0.615-0.023c0.194-0.025,0.358-0.084,0.491-0.177
			c0.128-0.087,0.248-0.269,0.357-0.546c0.11-0.276,0.158-0.445,0.143-0.507l-3.079-8.749h2.438l1.829,6.181l1.729-6.181h2.33
			l-2.873,8.241c-0.556,1.589-0.994,2.574-1.317,2.956s-0.97,0.572-1.939,0.572c-0.195,0-0.352-0.001-0.47-0.003
			c-0.118-0.003-0.295-0.012-0.531-0.027V19.749z"/>
		<path d="M95.034,6.708c0.113,0.008,0.267,0.02,0.461,0.035v1.784c-0.122-0.016-0.329-0.027-0.618-0.035
			c-0.29-0.008-0.489,0.056-0.6,0.192c-0.11,0.136-0.165,0.286-0.165,0.45c0,0.164,0,0.4,0,0.708h1.438v1.545h-1.438v6.757h-2.176
			v-6.757h-1.23V9.84h1.199V9.302c0-0.897,0.151-1.515,0.454-1.853c0.317-0.502,1.084-0.753,2.298-0.753
			C94.795,6.696,94.921,6.7,95.034,6.708z"/>
		<path d="M101.07,9.567c0.028,0.002,0.091,0.006,0.188,0.012v2.245c-0.138-0.016-0.261-0.026-0.369-0.031
			c-0.107-0.005-0.194-0.008-0.261-0.008c-0.882,0-1.474,0.287-1.776,0.861c-0.169,0.323-0.253,0.82-0.253,1.492v4.005h-2.207V9.763
			h2.091v1.461c0.339-0.559,0.634-0.94,0.885-1.146c0.41-0.343,0.942-0.515,1.599-0.515C101.007,9.563,101.042,9.565,101.07,9.567z"
			/>
		<path d="M105.467,13.046c0.408-0.051,0.7-0.115,0.875-0.192c0.315-0.133,0.473-0.341,0.473-0.623c0-0.343-0.121-0.581-0.362-0.711
			c-0.241-0.131-0.596-0.196-1.063-0.196c-0.524,0-0.896,0.128-1.114,0.385c-0.156,0.189-0.26,0.446-0.312,0.769h-2.114
			c0.046-0.733,0.252-1.335,0.617-1.807c0.582-0.738,1.58-1.107,2.996-1.107c0.921,0,1.739,0.182,2.455,0.546
			s1.073,1.051,1.073,2.06v3.843c0,0.267,0.005,0.59,0.016,0.969c0.015,0.287,0.059,0.482,0.13,0.585
			c0.072,0.103,0.18,0.187,0.323,0.253v0.323h-2.383c-0.066-0.169-0.113-0.328-0.139-0.477s-0.046-0.317-0.062-0.508
			c-0.304,0.328-0.654,0.607-1.052,0.838c-0.474,0.272-1.01,0.408-1.608,0.408c-0.763,0-1.393-0.217-1.89-0.65
			c-0.498-0.433-0.747-1.046-0.747-1.841c0-1.03,0.4-1.775,1.201-2.237c0.438-0.251,1.084-0.431,1.936-0.538L105.467,13.046z
			 M106.807,14.068c-0.14,0.087-0.282,0.157-0.425,0.211s-0.339,0.104-0.588,0.15l-0.499,0.092c-0.468,0.082-0.803,0.183-1.007,0.3
			c-0.345,0.2-0.518,0.511-0.518,0.931c0,0.374,0.105,0.645,0.316,0.811c0.21,0.167,0.467,0.25,0.769,0.25
			c0.479,0,0.92-0.139,1.323-0.415s0.612-0.781,0.628-1.515V14.068z"/>
		<path d="M120.966,9.794c0.358,0.144,0.684,0.395,0.976,0.753c0.236,0.292,0.395,0.651,0.477,1.076
			c0.052,0.282,0.077,0.695,0.077,1.238l-0.016,5.281h-2.244v-5.335c0-0.318-0.052-0.579-0.154-0.784
			c-0.194-0.389-0.553-0.584-1.076-0.584c-0.604,0-1.022,0.251-1.253,0.753c-0.118,0.267-0.177,0.587-0.177,0.961v4.989h-2.206
			v-4.989c0-0.497-0.052-0.858-0.153-1.084c-0.185-0.405-0.546-0.607-1.084-0.607c-0.626,0-1.046,0.202-1.261,0.607
			c-0.118,0.231-0.177,0.574-0.177,1.03v5.043h-2.222V9.779h2.129v1.222c0.271-0.436,0.528-0.746,0.769-0.93
			c0.426-0.328,0.977-0.492,1.653-0.492c0.641,0,1.158,0.141,1.553,0.422c0.317,0.262,0.559,0.597,0.723,1.007
			c0.287-0.492,0.643-0.854,1.068-1.084c0.451-0.23,0.953-0.346,1.507-0.346C120.244,9.579,120.607,9.651,120.966,9.794z"/>
		<path d="M129.577,9.933c0.585,0.262,1.067,0.675,1.448,1.24c0.343,0.498,0.565,1.075,0.668,1.732
			c0.059,0.385,0.083,0.939,0.071,1.664h-6.103c0.034,0.84,0.326,1.43,0.876,1.768c0.335,0.21,0.737,0.315,1.208,0.315
			c0.5,0,0.905-0.128,1.217-0.385c0.17-0.138,0.32-0.33,0.451-0.576h2.236c-0.059,0.497-0.329,1.002-0.812,1.515
			c-0.751,0.814-1.802,1.222-3.152,1.222c-1.115,0-2.1-0.344-2.952-1.03c-0.853-0.688-1.278-1.806-1.278-3.355
			c0-1.451,0.385-2.564,1.154-3.339s1.769-1.162,2.996-1.162C128.335,9.541,128.993,9.671,129.577,9.933z M126.299,11.826
			c-0.31,0.319-0.504,0.751-0.584,1.297h3.774c-0.039-0.582-0.234-1.023-0.583-1.324c-0.35-0.301-0.782-0.452-1.3-0.452
			C127.044,11.347,126.609,11.507,126.299,11.826z"/>
	</g>
</g>
<g>
	<g id="Page-1_1_" sketch:type="MSPage">
		<path id="Fill-17_1_" sketch:type="MSShapeGroup" fill="#FFFFFF" d="M9.924,45.313V43h2.314c0,0-0.32-0.714-0.314-1h-3v3
			C9.211,44.991,9.924,45.313,9.924,45.313z M35.924,45c-0.287-0.009-1.091,0.313-1.091,0.313V43H32.52c0,0,0.412-0.714,0.404-1
			h1.909h1.091V45z M9.924,65.687V68h2.314c0,0-0.32,0.713-0.314,1h-3v-3C9.211,66.008,9.924,65.687,9.924,65.687z M34.924,65.687
			V68h-2.313c0,0,0.321,0.713,0.313,1h3v-3C35.637,66.008,34.924,65.687,34.924,65.687z"/>
		<path id="Fill-1-copy-2_1_" sketch:type="MSShapeGroup" fill="#FFFFFF" d="M11.053,48.891c-0.146-0.145-0.194-4.552,0-4.746
			s4.617-0.194,4.762,0s0.146,4.6,0,4.746C15.669,49.036,11.198,49.036,11.053,48.891z M17.053,48.891
			c-0.146-0.145-0.194-4.552,0-4.746s4.617-0.194,4.762,0s0.146,4.6,0,4.746C21.669,49.036,17.198,49.036,17.053,48.891z
			 M23.053,48.891c-0.146-0.145-0.194-4.552,0-4.746s4.617-0.194,4.762,0c0.146,0.194,0.146,4.6,0,4.746
			C27.669,49.036,23.198,49.036,23.053,48.891z M29.053,48.891c-0.146-0.145-0.194-4.552,0-4.746c0.194-0.194,4.617-0.194,4.762,0
			c0.146,0.194,0.146,4.6,0,4.746C33.669,49.036,29.198,49.036,29.053,48.891z M11.053,54.891c-0.146-0.145-0.194-4.552,0-4.746
			s4.617-0.194,4.762,0s0.146,4.6,0,4.746S11.198,55.036,11.053,54.891z M17.053,54.891c-0.146-0.145-0.194-4.552,0-4.746
			s4.617-0.194,4.762,0s0.146,4.6,0,4.746S17.198,55.036,17.053,54.891z M23.053,54.891c-0.146-0.145-0.194-4.552,0-4.746
			s4.617-0.194,4.762,0c0.146,0.194,0.146,4.6,0,4.746C27.669,55.036,23.198,55.036,23.053,54.891z M29.053,54.891
			c-0.146-0.145-0.194-4.552,0-4.746c0.194-0.194,4.617-0.194,4.762,0c0.146,0.194,0.146,4.6,0,4.746
			C33.669,55.036,29.198,55.036,29.053,54.891z M11.053,60.891c-0.146-0.145-0.194-4.552,0-4.746s4.617-0.194,4.762,0
			s0.146,4.6,0,4.746S11.198,61.036,11.053,60.891z M17.053,60.891c-0.146-0.145-0.194-4.552,0-4.746s4.617-0.194,4.762,0
			s0.146,4.6,0,4.746S17.198,61.036,17.053,60.891z M23.053,60.891c-0.146-0.145-0.194-4.552,0-4.746s4.617-0.194,4.762,0
			c0.146,0.194,0.146,4.6,0,4.746C27.669,61.036,23.198,61.036,23.053,60.891z M29.053,60.891c-0.146-0.145-0.194-4.552,0-4.746
			c0.194-0.194,4.617-0.194,4.762,0c0.146,0.194,0.146,4.6,0,4.746C33.669,61.036,29.198,61.036,29.053,60.891z M11.053,66.891
			c-0.146-0.145-0.194-4.552,0-4.746s4.617-0.194,4.762,0s0.146,4.6,0,4.746C15.669,67.036,11.198,67.036,11.053,66.891z
			 M17.053,66.891c-0.146-0.145-0.194-4.552,0-4.746s4.617-0.194,4.762,0s0.146,4.6,0,4.746
			C21.669,67.036,17.198,67.036,17.053,66.891z M23.053,66.891c-0.146-0.145-0.194-4.552,0-4.746s4.617-0.194,4.762,0
			c0.146,0.194,0.146,4.6,0,4.746C27.669,67.036,23.198,67.036,23.053,66.891z M29.053,66.891c-0.146-0.145-0.194-4.552,0-4.746
			c0.194-0.194,4.617-0.194,4.762,0c0.146,0.194,0.146,4.6,0,4.746C33.669,67.036,29.198,67.036,29.053,66.891z"/>
	</g>
	<g>
		<path fill="#FFFFFF" d="M43.331,56.645c0.073,0.518,0.217,0.905,0.432,1.161c0.392,0.467,1.064,0.699,2.017,0.699
			c0.57,0,1.034-0.062,1.39-0.185c0.675-0.235,1.013-0.674,1.013-1.314c0-0.374-0.166-0.663-0.496-0.868
			c-0.331-0.2-0.855-0.377-1.573-0.531l-1.227-0.269c-1.206-0.266-2.034-0.556-2.485-0.869c-0.764-0.522-1.146-1.34-1.146-2.452
			c0-1.015,0.374-1.858,1.121-2.529s1.844-1.007,3.291-1.007c1.209,0,2.24,0.316,3.094,0.949c0.854,0.633,1.301,1.552,1.343,2.756
			h-2.275c-0.042-0.682-0.348-1.166-0.915-1.453c-0.378-0.189-0.848-0.285-1.41-0.285c-0.625,0-1.124,0.123-1.497,0.369
			s-0.56,0.589-0.56,1.03c0,0.405,0.184,0.707,0.552,0.907c0.236,0.133,0.737,0.29,1.505,0.469l1.988,0.469
			c0.872,0.205,1.525,0.479,1.96,0.823c0.676,0.533,1.014,1.304,1.014,2.313c0,1.035-0.4,1.896-1.201,2.579
			c-0.8,0.685-1.931,1.026-3.392,1.026c-1.491,0-2.665-0.337-3.52-1.011s-1.282-1.601-1.282-2.779H43.331z"/>
		<path fill="#FFFFFF" d="M53.738,51.763v5.05c0,0.478,0.056,0.836,0.168,1.077c0.199,0.425,0.589,0.638,1.17,0.638
			c0.745,0,1.255-0.303,1.53-0.907c0.143-0.328,0.214-0.761,0.214-1.299v-4.559h2.222v8.379h-2.129v-1.184
			c-0.021,0.025-0.072,0.103-0.153,0.23c-0.082,0.128-0.179,0.241-0.292,0.338c-0.342,0.308-0.673,0.518-0.992,0.631
			c-0.319,0.112-0.694,0.169-1.123,0.169c-1.237,0-2.07-0.446-2.499-1.338c-0.24-0.492-0.36-1.217-0.36-2.176v-5.05H53.738z"/>
		<path fill="#FFFFFF" d="M67.825,52.663c0.683,0.723,1.024,1.784,1.024,3.183c0,1.476-0.334,2.601-1.002,3.375
			c-0.668,0.774-1.527,1.161-2.58,1.161c-0.671,0-1.228-0.167-1.671-0.5c-0.242-0.185-0.48-0.453-0.712-0.807v4.366h-2.168V51.763
			h2.099v1.238c0.237-0.364,0.49-0.651,0.758-0.861c0.49-0.374,1.073-0.561,1.749-0.561C66.307,51.579,67.141,51.94,67.825,52.663z
			 M66.143,54.239c-0.298-0.497-0.78-0.746-1.448-0.746c-0.803,0-1.354,0.376-1.654,1.13c-0.155,0.4-0.233,0.907-0.233,1.522
			c0,0.974,0.262,1.657,0.784,2.052c0.311,0.231,0.678,0.347,1.103,0.347c0.616,0,1.086-0.236,1.41-0.708
			c0.323-0.471,0.485-1.099,0.485-1.883C66.589,55.307,66.441,54.736,66.143,54.239z"/>
		<path fill="#FFFFFF" d="M77.047,52.663c0.683,0.723,1.024,1.784,1.024,3.183c0,1.476-0.334,2.601-1.002,3.375
			c-0.668,0.774-1.527,1.161-2.58,1.161c-0.671,0-1.228-0.167-1.671-0.5c-0.242-0.185-0.48-0.453-0.712-0.807v4.366h-2.168V51.763
			h2.099v1.238c0.237-0.364,0.49-0.651,0.758-0.861c0.49-0.374,1.073-0.561,1.749-0.561C75.53,51.579,76.364,51.94,77.047,52.663z
			 M75.366,54.239c-0.298-0.497-0.78-0.746-1.448-0.746c-0.803,0-1.354,0.376-1.654,1.13c-0.155,0.4-0.233,0.907-0.233,1.522
			c0,0.974,0.262,1.657,0.784,2.052c0.311,0.231,0.678,0.347,1.103,0.347c0.616,0,1.086-0.236,1.41-0.708
			c0.323-0.471,0.485-1.099,0.485-1.883C75.812,55.307,75.664,54.736,75.366,54.239z"/>
		<path fill="#FFFFFF" d="M81.461,60.143H79.27V48.812h2.191V60.143z"/>
		<path fill="#FFFFFF" d="M83.535,61.749l0.277,0.016c0.215,0.01,0.42,0.003,0.615-0.023c0.194-0.025,0.358-0.084,0.491-0.177
			c0.128-0.087,0.248-0.269,0.357-0.546c0.11-0.276,0.158-0.445,0.143-0.507l-3.079-8.749h2.438l1.829,6.181l1.729-6.181h2.33
			l-2.873,8.241c-0.556,1.589-0.994,2.574-1.317,2.956s-0.97,0.572-1.939,0.572c-0.195,0-0.352-0.001-0.47-0.003
			c-0.118-0.003-0.295-0.012-0.531-0.027V61.749z"/>
		<path fill="#FFFFFF" d="M95.034,48.708c0.113,0.008,0.267,0.02,0.461,0.035v1.784c-0.122-0.016-0.329-0.027-0.618-0.035
			c-0.29-0.008-0.489,0.056-0.6,0.192c-0.11,0.136-0.165,0.286-0.165,0.45c0,0.164,0,0.4,0,0.708h1.438v1.545h-1.438v6.757h-2.176
			v-6.757h-1.23V51.84h1.199v-0.538c0-0.897,0.151-1.515,0.454-1.853c0.317-0.502,1.084-0.753,2.298-0.753
			C94.795,48.696,94.921,48.7,95.034,48.708z"/>
		<path fill="#FFFFFF" d="M101.07,51.567c0.028,0.002,0.091,0.006,0.188,0.012v2.245c-0.138-0.016-0.261-0.026-0.369-0.031
			c-0.107-0.005-0.194-0.008-0.261-0.008c-0.882,0-1.474,0.287-1.776,0.861c-0.169,0.323-0.253,0.82-0.253,1.492v4.005h-2.207
			v-8.379h2.091v1.461c0.339-0.559,0.634-0.94,0.885-1.146c0.41-0.343,0.942-0.515,1.599-0.515
			C101.007,51.563,101.042,51.565,101.07,51.567z"/>
		<path fill="#FFFFFF" d="M105.467,55.046c0.408-0.051,0.7-0.115,0.875-0.192c0.315-0.133,0.473-0.341,0.473-0.623
			c0-0.343-0.121-0.581-0.362-0.711c-0.241-0.131-0.596-0.196-1.063-0.196c-0.524,0-0.896,0.128-1.114,0.385
			c-0.156,0.189-0.26,0.446-0.312,0.769h-2.114c0.046-0.733,0.252-1.335,0.617-1.807c0.582-0.738,1.58-1.107,2.996-1.107
			c0.921,0,1.739,0.182,2.455,0.546s1.073,1.051,1.073,2.06v3.843c0,0.267,0.005,0.59,0.016,0.969
			c0.015,0.287,0.059,0.482,0.13,0.585c0.072,0.103,0.18,0.187,0.323,0.253v0.323h-2.383c-0.066-0.169-0.113-0.328-0.139-0.477
			s-0.046-0.317-0.062-0.508c-0.304,0.328-0.654,0.607-1.052,0.838c-0.474,0.272-1.01,0.408-1.608,0.408
			c-0.763,0-1.393-0.217-1.89-0.65c-0.498-0.433-0.747-1.046-0.747-1.841c0-1.03,0.4-1.775,1.201-2.237
			c0.438-0.251,1.084-0.431,1.936-0.538L105.467,55.046z M106.807,56.068c-0.14,0.087-0.282,0.157-0.425,0.211
			s-0.339,0.104-0.588,0.15l-0.499,0.092c-0.468,0.082-0.803,0.183-1.007,0.3c-0.345,0.2-0.518,0.511-0.518,0.931
			c0,0.374,0.105,0.645,0.316,0.811c0.21,0.167,0.467,0.25,0.769,0.25c0.479,0,0.92-0.139,1.323-0.415s0.612-0.781,0.628-1.515
			V56.068z"/>
		<path fill="#FFFFFF" d="M120.966,51.794c0.358,0.144,0.684,0.395,0.976,0.753c0.236,0.292,0.395,0.651,0.477,1.076
			c0.052,0.282,0.077,0.695,0.077,1.238l-0.016,5.281h-2.244v-5.335c0-0.318-0.052-0.579-0.154-0.784
			c-0.194-0.389-0.553-0.584-1.076-0.584c-0.604,0-1.022,0.251-1.253,0.753c-0.118,0.267-0.177,0.587-0.177,0.961v4.989h-2.206
			v-4.989c0-0.497-0.052-0.858-0.153-1.084c-0.185-0.405-0.546-0.607-1.084-0.607c-0.626,0-1.046,0.202-1.261,0.607
			c-0.118,0.231-0.177,0.574-0.177,1.03v5.043h-2.222v-8.364h2.129v1.222c0.271-0.436,0.528-0.746,0.769-0.93
			c0.426-0.328,0.977-0.492,1.653-0.492c0.641,0,1.158,0.141,1.553,0.422c0.317,0.262,0.559,0.597,0.723,1.007
			c0.287-0.492,0.643-0.854,1.068-1.084c0.451-0.23,0.953-0.346,1.507-0.346C120.244,51.579,120.607,51.651,120.966,51.794z"/>
		<path fill="#FFFFFF" d="M129.577,51.933c0.585,0.262,1.067,0.675,1.448,1.24c0.343,0.498,0.565,1.075,0.668,1.732
			c0.059,0.385,0.083,0.939,0.071,1.664h-6.103c0.034,0.84,0.326,1.43,0.876,1.768c0.335,0.21,0.737,0.315,1.208,0.315
			c0.5,0,0.905-0.128,1.217-0.385c0.17-0.138,0.32-0.33,0.451-0.576h2.236c-0.059,0.497-0.329,1.002-0.812,1.515
			c-0.751,0.814-1.802,1.222-3.152,1.222c-1.115,0-2.1-0.344-2.952-1.03c-0.853-0.688-1.278-1.806-1.278-3.355
			c0-1.451,0.385-2.564,1.154-3.339s1.769-1.162,2.996-1.162C128.335,51.541,128.993,51.671,129.577,51.933z M126.299,53.826
			c-0.31,0.319-0.504,0.751-0.584,1.297h3.774c-0.039-0.582-0.234-1.023-0.583-1.324c-0.35-0.301-0.782-0.452-1.3-0.452
			C127.044,53.347,126.609,53.507,126.299,53.826z"/>
	</g>
</g>
<rect x="1.841" y="86.167" width="37.083" height="37.083"/>
<rect x="53.833" y="86.354" fill="none" width="37.083" height="36.896"/>
<rect x="100.502" y="86.354" fill="none" width="37.083" height="36.896"/>
<g>
	<g id="Page-1_2_" sketch:type="MSPage">
		<path id="Fill-17_2_" sketch:type="MSShapeGroup" fill="#FFFFFF" d="M7.924,94.521v-2.313h2.314c0,0-0.32-0.714-0.314-1h-3v3
			C7.211,94.2,7.924,94.521,7.924,94.521z M33.924,94.208c-0.287-0.009-1.091,0.313-1.091,0.313v-2.313H30.52
			c0,0,0.412-0.714,0.404-1h1.909h1.091V94.208z M7.924,114.895v2.313h2.314c0,0-0.32,0.713-0.314,1h-3v-3
			C7.211,115.216,7.924,114.895,7.924,114.895z M32.924,114.895v2.313h-2.313c0,0,0.321,0.713,0.313,1h3v-3
			C33.637,115.216,32.924,114.895,32.924,114.895z"/>
		<path id="Fill-1-copy-2_2_" sketch:type="MSShapeGroup" fill="#FFFFFF" d="M9.053,98.099c-0.146-0.145-0.194-4.552,0-4.746
			s4.617-0.194,4.762,0s0.146,4.6,0,4.746S9.198,98.245,9.053,98.099z M15.053,98.099c-0.146-0.145-0.194-4.552,0-4.746
			s4.617-0.194,4.762,0s0.146,4.6,0,4.746S15.198,98.245,15.053,98.099z M21.053,98.099c-0.146-0.145-0.194-4.552,0-4.746
			s4.617-0.194,4.762,0c0.146,0.194,0.146,4.6,0,4.746C25.669,98.245,21.198,98.245,21.053,98.099z M27.053,98.099
			c-0.146-0.145-0.194-4.552,0-4.746c0.194-0.194,4.617-0.194,4.762,0c0.146,0.194,0.146,4.6,0,4.746
			C31.669,98.245,27.198,98.245,27.053,98.099z M9.053,104.099c-0.146-0.145-0.194-4.552,0-4.746s4.617-0.194,4.762,0
			s0.146,4.6,0,4.746S9.198,104.245,9.053,104.099z M15.053,104.099c-0.146-0.145-0.194-4.552,0-4.746s4.617-0.194,4.762,0
			s0.146,4.6,0,4.746S15.198,104.245,15.053,104.099z M21.053,104.099c-0.146-0.145-0.194-4.552,0-4.746s4.617-0.194,4.762,0
			c0.146,0.194,0.146,4.6,0,4.746C25.669,104.245,21.198,104.245,21.053,104.099z M27.053,104.099c-0.146-0.145-0.194-4.552,0-4.746
			c0.194-0.194,4.617-0.194,4.762,0c0.146,0.194,0.146,4.6,0,4.746C31.669,104.245,27.198,104.245,27.053,104.099z M9.053,110.099
			c-0.146-0.145-0.194-4.552,0-4.746s4.617-0.194,4.762,0s0.146,4.6,0,4.746S9.198,110.245,9.053,110.099z M15.053,110.099
			c-0.146-0.145-0.194-4.552,0-4.746s4.617-0.194,4.762,0s0.146,4.6,0,4.746S15.198,110.245,15.053,110.099z M21.053,110.099
			c-0.146-0.145-0.194-4.552,0-4.746s4.617-0.194,4.762,0c0.146,0.194,0.146,4.6,0,4.746
			C25.669,110.245,21.198,110.245,21.053,110.099z M27.053,110.099c-0.146-0.145-0.194-4.552,0-4.746
			c0.194-0.194,4.617-0.194,4.762,0c0.146,0.194,0.146,4.6,0,4.746C31.669,110.245,27.198,110.245,27.053,110.099z M9.053,116.099
			c-0.146-0.145-0.194-4.552,0-4.746s4.617-0.194,4.762,0s0.146,4.6,0,4.746S9.198,116.245,9.053,116.099z M15.053,116.099
			c-0.146-0.145-0.194-4.552,0-4.746s4.617-0.194,4.762,0s0.146,4.6,0,4.746S15.198,116.245,15.053,116.099z M21.053,116.099
			c-0.146-0.145-0.194-4.552,0-4.746s4.617-0.194,4.762,0c0.146,0.194,0.146,4.6,0,4.746
			C25.669,116.245,21.198,116.245,21.053,116.099z M27.053,116.099c-0.146-0.145-0.194-4.552,0-4.746
			c0.194-0.194,4.617-0.194,4.762,0c0.146,0.194,0.146,4.6,0,4.746C31.669,116.245,27.198,116.245,27.053,116.099z"/>
	</g>
</g>
<g>
	<g id="Page-1_3_" sketch:type="MSPage">
		<path id="Fill-17_3_" sketch:type="MSShapeGroup" d="M59.917,94.521v-2.313h2.314c0,0-0.32-0.714-0.314-1h-3v3
			C59.204,94.2,59.917,94.521,59.917,94.521z M85.917,94.208c-0.287-0.009-1.091,0.313-1.091,0.313v-2.313h-2.313
			c0,0,0.412-0.714,0.404-1h1.909h1.091V94.208z M59.917,114.895v2.313h2.314c0,0-0.32,0.713-0.314,1h-3v-3
			C59.204,115.216,59.917,114.895,59.917,114.895z M84.917,114.895v2.313h-2.313c0,0,0.321,0.713,0.313,1h3v-3
			C85.63,115.216,84.917,114.895,84.917,114.895z"/>
		<path id="Fill-1-copy-2_3_" sketch:type="MSShapeGroup" d="M61.045,98.099c-0.146-0.145-0.194-4.552,0-4.746s4.617-0.194,4.762,0
			c0.146,0.194,0.146,4.6,0,4.746C65.662,98.245,61.191,98.245,61.045,98.099z M67.045,98.099c-0.146-0.145-0.194-4.552,0-4.746
			s4.617-0.194,4.762,0c0.146,0.194,0.146,4.6,0,4.746C71.662,98.245,67.191,98.245,67.045,98.099z M73.045,98.099
			c-0.146-0.145-0.194-4.552,0-4.746s4.617-0.194,4.762,0s0.146,4.6,0,4.746S73.191,98.245,73.045,98.099z M79.045,98.099
			c-0.146-0.145-0.194-4.552,0-4.746s4.617-0.194,4.762,0s0.146,4.6,0,4.746S79.191,98.245,79.045,98.099z M61.045,104.099
			c-0.146-0.145-0.194-4.552,0-4.746s4.617-0.194,4.762,0c0.146,0.194,0.146,4.6,0,4.746
			C65.662,104.245,61.191,104.245,61.045,104.099z M67.045,104.099c-0.146-0.145-0.194-4.552,0-4.746s4.617-0.194,4.762,0
			c0.146,0.194,0.146,4.6,0,4.746C71.662,104.245,67.191,104.245,67.045,104.099z M73.045,104.099c-0.146-0.145-0.194-4.552,0-4.746
			s4.617-0.194,4.762,0s0.146,4.6,0,4.746S73.191,104.245,73.045,104.099z M79.045,104.099c-0.146-0.145-0.194-4.552,0-4.746
			s4.617-0.194,4.762,0s0.146,4.6,0,4.746S79.191,104.245,79.045,104.099z M61.045,110.099c-0.146-0.145-0.194-4.552,0-4.746
			s4.617-0.194,4.762,0c0.146,0.194,0.146,4.6,0,4.746C65.662,110.245,61.191,110.245,61.045,110.099z M67.045,110.099
			c-0.146-0.145-0.194-4.552,0-4.746s4.617-0.194,4.762,0c0.146,0.194,0.146,4.6,0,4.746
			C71.662,110.245,67.191,110.245,67.045,110.099z M73.045,110.099c-0.146-0.145-0.194-4.552,0-4.746s4.617-0.194,4.762,0
			s0.146,4.6,0,4.746S73.191,110.245,73.045,110.099z M79.045,110.099c-0.146-0.145-0.194-4.552,0-4.746s4.617-0.194,4.762,0
			s0.146,4.6,0,4.746S79.191,110.245,79.045,110.099z M61.045,116.099c-0.146-0.145-0.194-4.552,0-4.746s4.617-0.194,4.762,0
			c0.146,0.194,0.146,4.6,0,4.746C65.662,116.245,61.191,116.245,61.045,116.099z M67.045,116.099c-0.146-0.145-0.194-4.552,0-4.746
			s4.617-0.194,4.762,0c0.146,0.194,0.146,4.6,0,4.746C71.662,116.245,67.191,116.245,67.045,116.099z M73.045,116.099
			c-0.146-0.145-0.194-4.552,0-4.746s4.617-0.194,4.762,0s0.146,4.6,0,4.746S73.191,116.245,73.045,116.099z M79.045,116.099
			c-0.146-0.145-0.194-4.552,0-4.746s4.617-0.194,4.762,0s0.146,4.6,0,4.746S79.191,116.245,79.045,116.099z"/>
	</g>
</g>
<g>
	<g id="Page-1_4_" sketch:type="MSPage">
		<path id="Fill-17_4_" sketch:type="MSShapeGroup" fill="#FFFFFF" d="M106.544,94.521v-2.313h2.314c0,0-0.32-0.714-0.314-1h-3v3
			C105.831,94.2,106.544,94.521,106.544,94.521z M132.544,94.208c-0.287-0.009-1.091,0.313-1.091,0.313v-2.313h-2.313
			c0,0,0.412-0.714,0.404-1h1.909h1.091V94.208z M106.544,114.895v2.313h2.314c0,0-0.32,0.713-0.314,1h-3v-3
			C105.831,115.216,106.544,114.895,106.544,114.895z M131.544,114.895v2.313h-2.313c0,0,0.321,0.713,0.313,1h3v-3
			C132.257,115.216,131.544,114.895,131.544,114.895z"/>
		<path id="Fill-1-copy-2_4_" sketch:type="MSShapeGroup" fill="#FFFFFF" d="M107.672,98.099c-0.146-0.145-0.194-4.552,0-4.746
			s4.617-0.194,4.762,0c0.146,0.194,0.146,4.6,0,4.746C112.289,98.245,107.818,98.245,107.672,98.099z M113.672,98.099
			c-0.146-0.145-0.194-4.552,0-4.746s4.617-0.194,4.762,0c0.146,0.194,0.146,4.6,0,4.746
			C118.289,98.245,113.818,98.245,113.672,98.099z M119.672,98.099c-0.146-0.145-0.194-4.552,0-4.746s4.617-0.194,4.762,0
			c0.146,0.194,0.146,4.6,0,4.746C124.289,98.245,119.818,98.245,119.672,98.099z M125.672,98.099c-0.146-0.145-0.194-4.552,0-4.746
			s4.617-0.194,4.762,0c0.146,0.194,0.146,4.6,0,4.746C130.289,98.245,125.818,98.245,125.672,98.099z M107.672,104.099
			c-0.146-0.145-0.194-4.552,0-4.746s4.617-0.194,4.762,0c0.146,0.194,0.146,4.6,0,4.746
			C112.289,104.245,107.818,104.245,107.672,104.099z M113.672,104.099c-0.146-0.145-0.194-4.552,0-4.746s4.617-0.194,4.762,0
			c0.146,0.194,0.146,4.6,0,4.746C118.289,104.245,113.818,104.245,113.672,104.099z M119.672,104.099
			c-0.146-0.145-0.194-4.552,0-4.746s4.617-0.194,4.762,0c0.146,0.194,0.146,4.6,0,4.746
			C124.289,104.245,119.818,104.245,119.672,104.099z M125.672,104.099c-0.146-0.145-0.194-4.552,0-4.746s4.617-0.194,4.762,0
			c0.146,0.194,0.146,4.6,0,4.746C130.289,104.245,125.818,104.245,125.672,104.099z M107.672,110.099
			c-0.146-0.145-0.194-4.552,0-4.746s4.617-0.194,4.762,0c0.146,0.194,0.146,4.6,0,4.746
			C112.289,110.245,107.818,110.245,107.672,110.099z M113.672,110.099c-0.146-0.145-0.194-4.552,0-4.746s4.617-0.194,4.762,0
			c0.146,0.194,0.146,4.6,0,4.746C118.289,110.245,113.818,110.245,113.672,110.099z M119.672,110.099
			c-0.146-0.145-0.194-4.552,0-4.746s4.617-0.194,4.762,0c0.146,0.194,0.146,4.6,0,4.746
			C124.289,110.245,119.818,110.245,119.672,110.099z M125.672,110.099c-0.146-0.145-0.194-4.552,0-4.746s4.617-0.194,4.762,0
			c0.146,0.194,0.146,4.6,0,4.746C130.289,110.245,125.818,110.245,125.672,110.099z M107.672,116.099
			c-0.146-0.145-0.194-4.552,0-4.746s4.617-0.194,4.762,0c0.146,0.194,0.146,4.6,0,4.746
			C112.289,116.245,107.818,116.245,107.672,116.099z M113.672,116.099c-0.146-0.145-0.194-4.552,0-4.746s4.617-0.194,4.762,0
			c0.146,0.194,0.146,4.6,0,4.746C118.289,116.245,113.818,116.245,113.672,116.099z M119.672,116.099
			c-0.146-0.145-0.194-4.552,0-4.746s4.617-0.194,4.762,0c0.146,0.194,0.146,4.6,0,4.746
			C124.289,116.245,119.818,116.245,119.672,116.099z M125.672,116.099c-0.146-0.145-0.194-4.552,0-4.746s4.617-0.194,4.762,0
			c0.146,0.194,0.146,4.6,0,4.746C130.289,116.245,125.818,116.245,125.672,116.099z"/>
	</g>
</g>
</svg>
